<?xml version="1.0" standalone="no"?>
<!DOCTYPE svg PUBLIC "-//W3C//DTD SVG 20010904//EN"
 "http://www.w3.org/TR/2001/REC-SVG-20010904/DTD/svg10.dtd">
<svg version="1.0" xmlns="http://www.w3.org/2000/svg"
 width="1024.000000pt" height="1024.000000pt" viewBox="0 0 1024.000000 1024.000000"
 preserveAspectRatio="xMidYMid meet">
<metadata>
Created by potrace 1.11, written by Peter Selinger 2001-2013
</metadata>
<g transform="translate(0.000000,1024.000000) scale(0.100000,-0.100000)"
fill="#000000" stroke="none">
<path d="M4845 9914 c-901 -44 -1737 -333 -2455 -847 -354 -254 -759 -642
-1044 -1002 -567 -717 -895 -1563 -966 -2496 -13 -172 -13 -629 0 -795 79
-999 421 -1841 1064 -2619 115 -138 509 -536 641 -647 557 -466 1175 -783
1845 -947 535 -131 1118 -171 1685 -116 650 63 1289 264 1825 575 556 323
1012 716 1410 1213 555 695 887 1497 985 2377 104 944 -55 1885 -450 2670
-232 459 -501 827 -898 1228 -481 486 -973 823 -1547 1060 -561 233 -1093 339
-1735 346 -159 2 -321 2 -360 0z m119 -4653 c37 -38 38 -39 22 -69 -49 -96 25
-212 135 -212 26 0 60 5 74 12 24 11 29 8 66 -29 l40 -40 -1353 -1165 c-744
-641 -1355 -1164 -1356 -1162 -2 1 452 532 1010 1180 557 648 1080 1256 1161
1351 81 95 151 173 155 173 5 0 25 -17 46 -39z"/>
</g>
</svg>
