<?xml version="1.0" standalone="no"?>
<!DOCTYPE svg PUBLIC "-//W3C//DTD SVG 20010904//EN"
 "http://www.w3.org/TR/2001/REC-SVG-20010904/DTD/svg10.dtd">
<svg version="1.0" xmlns="http://www.w3.org/2000/svg"
 width="1024.000000pt" height="1024.000000pt" viewBox="0 0 1024.000000 1024.000000"
 preserveAspectRatio="xMidYMid meet">
<metadata>
Created by potrace 1.11, written by Peter Selinger 2001-2013
</metadata>
<g transform="translate(0.000000,1024.000000) scale(0.100000,-0.100000)"
fill="#000000" stroke="none">
<path d="M4870 8619 c-644 -29 -1298 -266 -1815 -657 -296 -224 -623 -558
-833 -852 -140 -198 -291 -478 -385 -720 -261 -666 -296 -1548 -91 -2265 160
-558 462 -1057 909 -1498 356 -352 745 -610 1181 -781 529 -208 1199 -283
1789 -201 426 59 855 202 1191 395 775 446 1381 1174 1638 1968 117 363 171
710 169 1102 -1 620 -118 1117 -377 1615 -177 340 -385 615 -692 915 -559 546
-1175 851 -1934 955 -93 13 -547 38 -585 33 -5 -1 -80 -5 -165 -9z m-765
-1210 c36 -222 68 -411 70 -420 7 -20 -31 -12 455 -90 217 -34 398 -65 402
-69 5 -3 -184 -37 -420 -74 -235 -38 -429 -70 -430 -72 -2 -1 -35 -192 -72
-424 -38 -232 -71 -424 -73 -427 -3 -2 -8 8 -11 24 -10 47 -114 704 -121 766
-4 33 -13 61 -20 64 -8 2 -202 35 -432 72 -256 42 -408 71 -393 75 14 3 204
35 423 70 219 35 402 67 406 72 5 5 36 185 71 399 69 436 71 447 76 442 2 -2
33 -185 69 -408z"/>
</g>
</svg>
